<svg version="1.1" id="Layer_1" xmlns="http://www.w3.org/2000/svg" xmlns:xlink="http://www.w3.org/1999/xlink" x="0px" y="0px"
	 width="100%" viewBox="0 0 171 159" enable-background="new 0 0 171 159" xml:space="preserve">
<path fill="#010100" opacity="1.000000" stroke="none" 
	d="
M121.000000,160.000000 
	C80.666672,160.000000 40.833344,160.000000 1.000011,160.000000 
	C1.000007,107.000008 1.000007,54.000023 1.000004,1.000025 
	C57.999981,1.000017 114.999962,1.000017 171.999954,1.000008 
	C171.999969,53.999973 171.999969,106.999947 171.999985,159.999969 
	C155.166672,160.000000 138.333328,160.000000 121.000000,160.000000 
M154.830261,137.647354 
	C132.448990,99.746086 110.067719,61.844818 87.282555,23.259569 
	C62.271740,65.642143 37.642864,107.377502 12.626763,149.769043 
	C16.154667,149.769043 18.791651,149.556351 21.379736,149.821289 
	C24.844280,150.175964 26.706083,148.772110 28.406658,145.738434 
	C47.192200,112.226700 66.134117,78.802612 85.043053,45.360104 
	C85.891609,43.859352 86.829712,42.409233 87.988243,40.504570 
	C89.131813,42.297791 89.888153,43.374638 90.534828,44.513737 
	C109.503845,77.926758 128.473511,111.339424 147.413223,144.769058 
	C151.882889,152.658249 153.324142,153.316727 162.921844,151.130844 
	C160.305328,146.799667 157.736328,142.547180 154.830261,137.647354 
z"/>
<path fill="#F2AB07" opacity="1.000000" stroke="none" 
	d="
M154.998795,137.971008 
	C157.736328,142.547180 160.305328,146.799667 162.921844,151.130844 
	C153.324142,153.316727 151.882889,152.658249 147.413223,144.769058 
	C128.473511,111.339424 109.503845,77.926758 90.534828,44.513737 
	C89.888153,43.374638 89.131813,42.297791 87.988243,40.504570 
	C86.829712,42.409233 85.891609,43.859352 85.043053,45.360104 
	C66.134117,78.802612 47.192200,112.226700 28.406658,145.738434 
	C26.706083,148.772110 24.844280,150.175964 21.379736,149.821289 
	C18.791651,149.556351 16.154667,149.769043 12.626763,149.769043 
	C37.642864,107.377502 62.271740,65.642143 87.282555,23.259569 
	C110.067719,61.844818 132.448990,99.746086 154.998795,137.971008 
z"/>
</svg>