<svg version="1.1" id="Layer_1" xmlns="http://www.w3.org/2000/svg" xmlns:xlink="http://www.w3.org/1999/xlink" x="0px" y="0px"
	 width="100%" viewBox="0 0 578 447" enable-background="new 0 0 578 447" xml:space="preserve">
<path fill="#000000" opacity="1.000000" stroke="none" 
	d="
M407.000000,448.000000 
	C271.366272,448.000000 136.232559,448.000000 1.049415,448.000000 
	C1.049415,299.069275 1.049415,150.138519 1.049415,1.103887 
	C193.550400,1.103887 386.100891,1.103887 578.825684,1.103887 
	C578.825684,149.999832 578.825684,298.999908 578.825684,448.000000 
	C521.805115,448.000000 464.652557,448.000000 407.000000,448.000000 
M429.999054,213.500000 
	C429.999054,226.262924 429.999054,239.025864 429.999054,251.727158 
	C433.636017,251.727158 436.712402,251.727158 440.223236,251.727158 
	C440.223236,214.476929 440.223236,177.498550 440.223236,139.603302 
	C441.171875,140.929306 441.585571,141.402618 441.884094,141.939926 
	C461.129150,176.576813 480.349060,211.227661 499.614502,245.853180 
	C503.560181,252.944611 504.484985,253.250290 512.690674,251.360565 
	C512.690674,207.594803 512.690674,163.870529 512.690674,120.307587 
	C509.296234,120.307587 506.217865,120.307587 502.842957,120.307587 
	C502.842957,157.490082 502.842957,194.365036 502.842957,232.549408 
	C501.706604,230.699448 501.207977,229.953537 500.774017,229.171722 
	C481.863922,195.102615 462.950989,161.035095 444.061035,126.954819 
	C439.738464,119.156273 439.142242,118.844955 429.999054,120.645821 
	C429.999054,151.237854 429.999054,181.868927 429.999054,213.500000 
M290.427399,123.959625 
	C272.622559,116.759705 254.070740,121.461594 235.778244,119.777153 
	C235.778244,164.273438 235.778244,208.010895 235.778244,251.669891 
	C239.092270,251.669891 242.158508,251.669891 245.443848,251.669891 
	C245.443848,233.049576 245.443848,214.758545 245.443848,196.001495 
	C254.804031,196.001495 263.934814,196.134766 273.057648,195.924622 
	C275.998688,195.856888 277.372955,196.832565 278.595154,199.475784 
	C286.136780,215.785797 293.854706,232.014755 301.614563,248.222534 
	C302.301422,249.657211 303.554199,251.598862 304.811707,251.826401 
	C307.761963,252.360245 310.874451,251.997223 314.554108,251.997223 
	C304.969116,232.036697 295.791565,212.924652 286.810791,194.222336 
	C290.669952,191.619308 294.523499,189.635788 297.618500,186.818832 
	C307.514557,177.811844 310.065033,166.085022 309.011414,153.283051 
	C307.968658,140.613220 302.817810,130.401184 290.427399,123.959625 
M192.822357,205.655075 
	C176.216309,177.620316 159.610245,149.585556 142.706451,121.048119 
	C117.070702,164.496475 91.943153,207.083496 66.332130,250.489960 
	C69.301598,250.489960 71.294304,250.213974 73.182175,250.541763 
	C78.823097,251.521225 81.597595,248.888443 84.290138,244.042343 
	C102.859726,210.620346 121.789848,177.398636 140.612595,144.117371 
	C141.450073,142.636581 142.370468,141.202667 143.510605,139.320389 
	C144.698074,141.371628 145.537460,142.795807 146.352737,144.233673 
	C166.032257,178.941772 185.695770,213.658981 205.428879,248.336563 
	C206.352661,249.959930 207.718338,252.211090 209.181183,252.472122 
	C212.616272,253.085129 216.235123,252.668381 220.590851,252.668381 
	C211.073990,236.598206 202.106415,221.455551 192.822357,205.655075 
M348.003235,130.713516 
	C349.434174,130.142120 350.861694,129.083939 352.296600,129.073776 
	C368.792786,128.957016 385.290100,129.004669 401.787109,128.989914 
	C403.213745,128.988632 404.640259,128.854553 405.950928,128.788055 
	C405.950928,125.687347 405.950928,123.063354 405.950928,120.274216 
	C383.224915,120.274216 360.669708,120.274216 338.158020,120.274216 
	C338.158020,164.275970 338.158020,208.003418 338.158020,251.768005 
	C361.187378,251.768005 383.936920,251.768005 406.768005,251.768005 
	C406.768005,248.795471 406.768005,246.058823 406.768005,242.930328 
	C387.133270,242.930328 367.725616,242.930328 348.234222,242.930328 
	C348.234222,224.461395 348.234222,206.391724 348.234222,187.933853 
	C365.210327,187.933853 381.956573,187.933853 398.792145,187.933853 
	C398.792145,184.804611 398.792145,182.068893 398.792145,178.945755 
	C381.825806,178.945755 365.082123,178.945755 347.999573,178.945755 
	C347.999573,162.929947 347.999573,147.305176 348.003235,130.713516 
M414.119934,322.401428 
	C414.870422,324.878265 412.500336,328.397980 417.183716,330.826660 
	C417.183716,319.553223 417.183716,309.328400 417.183716,299.214661 
	C432.907806,299.214661 448.027069,299.214661 463.201508,299.214661 
	C463.439392,301.415283 463.671539,303.392212 463.864136,305.372986 
	C465.001434,317.069702 473.974487,327.088318 484.952972,328.906555 
	C495.805298,330.703918 506.827850,324.079041 511.531067,312.932434 
	C517.700867,298.309937 510.918396,280.417389 496.995300,275.231232 
	C482.975952,270.009155 468.408356,278.524933 464.541168,293.196045 
	C464.222595,294.404694 461.809113,295.823364 460.346802,295.848450 
	C448.019135,296.059784 435.686279,295.969055 423.354980,295.969116 
	C420.408386,295.969116 417.461823,295.969116 414.119965,295.969116 
	C414.119965,304.837219 414.119965,313.132050 414.119934,322.401428 
M369.683899,295.053833 
	C367.863251,279.061066 357.479828,275.042511 339.840149,277.635651 
	C339.840149,294.679443 339.840149,311.723206 339.840149,329.004364 
	C344.189362,329.004364 348.188263,329.206207 352.160126,328.964172 
	C361.739410,328.380524 367.816742,322.986511 369.111908,313.325714 
	C369.879639,307.598938 369.655426,301.739227 369.683899,295.053833 
M75.907730,325.052612 
	C73.811554,322.456451 71.719719,319.856750 69.617058,317.265839 
	C68.794121,316.251801 67.946907,315.257446 67.110748,314.254150 
	C66.687355,314.605347 66.263969,314.956543 65.840576,315.307770 
	C65.900238,321.015015 68.400620,325.407440 73.628822,327.953796 
	C79.723000,330.921936 85.926605,330.845398 91.529785,326.846130 
	C96.234871,323.487915 97.041443,318.514130 96.152649,313.027161 
	C94.928040,305.467163 88.759117,303.518890 83.005386,300.948090 
	C79.874710,299.549286 76.684143,298.137604 73.865204,296.224091 
	C70.078674,293.653717 70.307465,289.500000 71.503937,285.842957 
	C72.723969,282.113892 75.872070,280.192535 79.949097,280.003784 
	C87.043869,279.675385 89.804077,281.671112 92.341599,288.753113 
	C92.759499,289.919434 94.016159,290.785248 94.885178,291.789948 
	C96.076080,282.453339 89.834038,275.982147 81.487312,275.985901 
	C72.720650,275.989838 66.425720,282.359406 66.984894,290.739502 
	C67.419571,297.253906 71.780861,300.554443 77.183929,302.961609 
	C81.091454,304.702545 85.179726,306.141205 88.842445,308.299927 
	C92.712379,310.580811 93.629173,314.568878 92.600861,318.762268 
	C91.594719,322.865234 88.685974,325.400848 84.529045,325.852722 
	C81.957863,326.132263 79.290939,325.531128 75.907730,325.052612 
M276.122467,281.684998 
	C276.056122,280.216858 275.989746,278.748688 275.866211,276.014862 
	C274.247803,277.419434 273.035278,278.019348 272.603088,278.972931 
	C272.163208,279.943481 272.485016,281.262299 272.484741,282.428619 
	C272.482361,293.093872 272.603302,303.760956 272.441895,314.423767 
	C272.322754,322.293884 268.611053,325.963043 261.299408,325.996460 
	C253.243744,326.033234 249.671341,322.545380 249.555008,313.986633 
	C249.403290,302.823486 249.511429,291.656769 249.520111,280.491577 
	C249.521927,278.155670 249.567184,275.832397 245.905472,277.778168 
	C245.905472,289.985291 245.803055,302.302643 245.937851,314.617371 
	C246.045837,324.483429 251.551788,329.975403 260.965607,330.000702 
	C270.240814,330.025604 276.003540,324.273834 276.095642,314.644806 
	C276.197662,303.980499 276.121307,293.314545 276.122467,281.684998 
M168.000839,302.500122 
	C168.001175,310.317078 168.096863,318.135773 167.956375,325.950195 
	C167.897644,329.218048 169.325974,329.377747 172.198288,328.526825 
	C172.198288,312.645599 172.198288,296.933929 172.198288,280.895996 
	C177.092377,280.895996 181.536163,280.895996 185.979950,280.895996 
	C186.251892,280.428833 186.523849,279.961670 186.795807,279.494476 
	C185.681961,278.664032 184.583405,277.138153 183.451828,277.113190 
	C174.475006,276.915558 165.489929,276.915710 156.513168,277.115112 
	C155.396942,277.139923 154.314514,278.687073 153.216431,279.528839 
	C153.491150,280.050781 153.765884,280.572723 154.040619,281.094666 
	C158.611282,281.094666 163.181946,281.094666 168.000839,281.094666 
	C168.000839,288.241089 168.000839,294.870636 168.000839,302.500122 
M411.488220,271.948486 
	C409.119171,274.619659 408.969666,277.645233 411.631866,279.787415 
	C412.803925,280.730530 416.554565,280.604462 417.131958,279.693939 
	C418.236328,277.952423 418.718628,274.922760 417.894135,273.159241 
	C417.324249,271.940247 414.128113,271.949005 411.488220,271.948486 
z"/>
<path fill="#FEFEFE" opacity="1.000000" stroke="none" 
	d="
M429.999054,213.000000 
	C429.999054,181.868927 429.999054,151.237854 429.999054,120.645821 
	C439.142242,118.844955 439.738464,119.156273 444.061035,126.954819 
	C462.950989,161.035095 481.863922,195.102615 500.774017,229.171722 
	C501.207977,229.953537 501.706604,230.699448 502.842957,232.549408 
	C502.842957,194.365036 502.842957,157.490082 502.842957,120.307587 
	C506.217865,120.307587 509.296234,120.307587 512.690674,120.307587 
	C512.690674,163.870529 512.690674,207.594803 512.690674,251.360565 
	C504.484985,253.250290 503.560181,252.944611 499.614502,245.853180 
	C480.349060,211.227661 461.129150,176.576813 441.884094,141.939926 
	C441.585571,141.402618 441.171875,140.929306 440.223236,139.603302 
	C440.223236,177.498550 440.223236,214.476929 440.223236,251.727158 
	C436.712402,251.727158 433.636017,251.727158 429.999054,251.727158 
	C429.999054,239.025864 429.999054,226.262924 429.999054,213.000000 
z"/>
<path fill="#FEFEFE" opacity="1.000000" stroke="none" 
	d="
M290.777527,124.107483 
	C302.817810,130.401184 307.968658,140.613220 309.011414,153.283051 
	C310.065033,166.085022 307.514557,177.811844 297.618500,186.818832 
	C294.523499,189.635788 290.669952,191.619308 286.810791,194.222336 
	C295.791565,212.924652 304.969116,232.036697 314.554108,251.997223 
	C310.874451,251.997223 307.761963,252.360245 304.811707,251.826401 
	C303.554199,251.598862 302.301422,249.657211 301.614563,248.222534 
	C293.854706,232.014755 286.136780,215.785797 278.595154,199.475784 
	C277.372955,196.832565 275.998688,195.856888 273.057648,195.924622 
	C263.934814,196.134766 254.804031,196.001495 245.443848,196.001495 
	C245.443848,214.758545 245.443848,233.049576 245.443848,251.669891 
	C242.158508,251.669891 239.092270,251.669891 235.778244,251.669891 
	C235.778244,208.010895 235.778244,164.273438 235.778244,119.777153 
	C254.070740,121.461594 272.622559,116.759705 290.777527,124.107483 
M261.500824,128.995651 
	C256.244843,128.995651 250.988846,128.995651 245.795502,128.995651 
	C245.795502,148.692810 245.795502,167.751526 245.795502,186.989746 
	C256.466827,186.989746 266.800385,187.225754 277.111450,186.847794 
	C280.258484,186.732452 283.667755,185.463089 286.401001,183.805542 
	C298.184326,176.659546 300.942688,163.743393 298.228363,149.095474 
	C296.152344,137.892273 288.900635,131.327103 277.960632,129.333527 
	C272.952484,128.420898 267.661530,129.060181 261.500824,128.995651 
z"/>
<path fill="#F8A307" opacity="1.000000" stroke="none" 
	d="
M192.980591,205.983978 
	C202.106415,221.455551 211.073990,236.598206 220.590851,252.668381 
	C216.235123,252.668381 212.616272,253.085129 209.181183,252.472122 
	C207.718338,252.211090 206.352661,249.959930 205.428879,248.336563 
	C185.695770,213.658981 166.032257,178.941772 146.352737,144.233673 
	C145.537460,142.795807 144.698074,141.371628 143.510605,139.320389 
	C142.370468,141.202667 141.450073,142.636581 140.612595,144.117371 
	C121.789848,177.398636 102.859726,210.620346 84.290138,244.042343 
	C81.597595,248.888443 78.823097,251.521225 73.182175,250.541763 
	C71.294304,250.213974 69.301598,250.489960 66.332130,250.489960 
	C91.943153,207.083496 117.070702,164.496475 142.706451,121.048119 
	C159.610245,149.585556 176.216309,177.620316 192.980591,205.983978 
z"/>
<path fill="#FFFFFF" opacity="1.000000" stroke="none" 
	d="
M348.001404,131.196960 
	C347.999573,147.305176 347.999573,162.929947 347.999573,178.945755 
	C365.082123,178.945755 381.825806,178.945755 398.792145,178.945755 
	C398.792145,182.068893 398.792145,184.804611 398.792145,187.933853 
	C381.956573,187.933853 365.210327,187.933853 348.234222,187.933853 
	C348.234222,206.391724 348.234222,224.461395 348.234222,242.930328 
	C367.725616,242.930328 387.133270,242.930328 406.768005,242.930328 
	C406.768005,246.058823 406.768005,248.795471 406.768005,251.768005 
	C383.936920,251.768005 361.187378,251.768005 338.158020,251.768005 
	C338.158020,208.003418 338.158020,164.275970 338.158020,120.274216 
	C360.669708,120.274216 383.224915,120.274216 405.950928,120.274216 
	C405.950928,123.063354 405.950928,125.687347 405.950928,128.788055 
	C404.640259,128.854553 403.213745,128.988632 401.787109,128.989914 
	C385.290100,129.004669 368.792786,128.957016 352.296600,129.073776 
	C350.861694,129.083939 349.434174,130.142120 348.001404,131.196960 
z"/>
<path fill="#EF9C02" opacity="1.000000" stroke="none" 
	d="
M414.119934,321.914154 
	C414.119965,313.132050 414.119965,304.837219 414.119965,295.969116 
	C417.461823,295.969116 420.408386,295.969116 423.354980,295.969116 
	C435.686279,295.969055 448.019135,296.059784 460.346802,295.848450 
	C461.809113,295.823364 464.222595,294.404694 464.541168,293.196045 
	C468.408356,278.524933 482.975952,270.009155 496.995300,275.231232 
	C510.918396,280.417389 517.700867,298.309937 511.531067,312.932434 
	C506.827850,324.079041 495.805298,330.703918 484.952972,328.906555 
	C473.974487,327.088318 465.001434,317.069702 463.864136,305.372986 
	C463.671539,303.392212 463.439392,301.415283 463.201508,299.214661 
	C448.027069,299.214661 432.907806,299.214661 417.183716,299.214661 
	C417.183716,309.328400 417.183716,319.553223 417.183716,330.826660 
	C412.500336,328.397980 414.870422,324.878265 414.119934,321.914154 
M471.558960,285.176849 
	C469.837311,289.266998 467.429718,293.211578 466.525085,297.475067 
	C463.996918,309.390381 472.264313,322.871796 483.295105,325.740845 
	C494.056946,328.540009 505.083710,322.272675 509.360992,310.925629 
	C513.723999,299.351257 509.559784,285.931854 499.663879,279.676086 
	C490.435669,273.842407 480.527191,275.608887 471.558960,285.176849 
z"/>
<path fill="#FBA302" opacity="1.000000" stroke="none" 
	d="
M369.780548,295.496552 
	C369.655426,301.739227 369.879639,307.598938 369.111908,313.325714 
	C367.816742,322.986511 361.739410,328.380524 352.160126,328.964172 
	C348.188263,329.206207 344.189362,329.004364 339.840149,329.004364 
	C339.840149,311.723206 339.840149,294.679443 339.842560,277.634277 
	C357.479828,275.042511 367.863251,279.061066 369.780548,295.496552 
M343.023224,310.495300 
	C343.023224,315.248352 343.023224,320.001434 343.023224,324.995453 
	C346.137787,324.995453 348.612640,325.001495 351.087433,324.994385 
	C360.258942,324.967926 365.705109,319.803253 365.951965,310.688507 
	C366.095978,305.372498 366.133545,300.043121 365.930756,294.730774 
	C365.662048,287.692993 361.061859,281.840759 355.039154,281.162964 
	C351.165985,280.727112 347.203918,281.081207 343.023224,281.081207 
	C343.023224,290.922577 343.023224,300.209534 343.023224,310.495300 
z"/>
<path fill="#F7A102" opacity="1.000000" stroke="none" 
	d="
M76.287361,325.188965 
	C79.290939,325.531128 81.957863,326.132263 84.529045,325.852722 
	C88.685974,325.400848 91.594719,322.865234 92.600861,318.762268 
	C93.629173,314.568878 92.712379,310.580811 88.842445,308.299927 
	C85.179726,306.141205 81.091454,304.702545 77.183929,302.961609 
	C71.780861,300.554443 67.419571,297.253906 66.984894,290.739502 
	C66.425720,282.359406 72.720650,275.989838 81.487312,275.985901 
	C89.834038,275.982147 96.076080,282.453339 94.885178,291.789948 
	C94.016159,290.785248 92.759499,289.919434 92.341599,288.753113 
	C89.804077,281.671112 87.043869,279.675385 79.949097,280.003784 
	C75.872070,280.192535 72.723969,282.113892 71.503937,285.842957 
	C70.307465,289.500000 70.078674,293.653717 73.865204,296.224091 
	C76.684143,298.137604 79.874710,299.549286 83.005386,300.948090 
	C88.759117,303.518890 94.928040,305.467163 96.152649,313.027161 
	C97.041443,318.514130 96.234871,323.487915 91.529785,326.846130 
	C85.926605,330.845398 79.723000,330.921936 73.628822,327.953796 
	C68.400620,325.407440 65.900238,321.015015 65.840576,315.307770 
	C66.263969,314.956543 66.687355,314.605347 67.110748,314.254150 
	C67.946907,315.257446 68.794121,316.251801 69.617058,317.265839 
	C71.719719,319.856750 73.811554,322.456451 76.287361,325.188965 
z"/>
<path fill="#FDA502" opacity="1.000000" stroke="none" 
	d="
M276.122559,282.167145 
	C276.121307,293.314545 276.197662,303.980499 276.095642,314.644806 
	C276.003540,324.273834 270.240814,330.025604 260.965607,330.000702 
	C251.551788,329.975403 246.045837,324.483429 245.937851,314.617371 
	C245.803055,302.302643 245.905472,289.985291 245.905472,277.778168 
	C249.567184,275.832397 249.521927,278.155670 249.520111,280.491577 
	C249.511429,291.656769 249.403290,302.823486 249.555008,313.986633 
	C249.671341,322.545380 253.243744,326.033234 261.299408,325.996460 
	C268.611053,325.963043 272.322754,322.293884 272.441895,314.423767 
	C272.603302,303.760956 272.482361,293.093872 272.484741,282.428619 
	C272.485016,281.262299 272.163208,279.943481 272.603088,278.972931 
	C273.035278,278.019348 274.247803,277.419434 275.866211,276.014862 
	C275.989746,278.748688 276.056122,280.216858 276.122559,282.167145 
z"/>
<path fill="#FFA602" opacity="1.000000" stroke="none" 
	d="
M168.000839,302.000153 
	C168.000839,294.870636 168.000839,288.241089 168.000839,281.094666 
	C163.181946,281.094666 158.611282,281.094666 154.040619,281.094666 
	C153.765884,280.572723 153.491150,280.050781 153.216431,279.528839 
	C154.314514,278.687073 155.396942,277.139923 156.513168,277.115112 
	C165.489929,276.915710 174.475006,276.915558 183.451828,277.113190 
	C184.583405,277.138153 185.681961,278.664032 186.795807,279.494476 
	C186.523849,279.961670 186.251892,280.428833 185.979950,280.895996 
	C181.536163,280.895996 177.092377,280.895996 172.198288,280.895996 
	C172.198288,296.933929 172.198288,312.645599 172.198288,328.526825 
	C169.325974,329.377747 167.897644,329.218048 167.956375,325.950195 
	C168.096863,318.135773 168.001175,310.317078 168.000839,302.000153 
z"/>
<path fill="#F9A202" opacity="1.000000" stroke="none" 
	d="
M411.796875,271.678802 
	C414.128113,271.949005 417.324249,271.940247 417.894135,273.159241 
	C418.718628,274.922760 418.236328,277.952423 417.131958,279.693939 
	C416.554565,280.604462 412.803925,280.730530 411.631866,279.787415 
	C408.969666,277.645233 409.119171,274.619659 411.796875,271.678802 
z"/>
<path fill="#030303" opacity="1.000000" stroke="none" 
	d="
M261.999817,128.995636 
	C267.661530,129.060181 272.952484,128.420898 277.960632,129.333527 
	C288.900635,131.327103 296.152344,137.892273 298.228363,149.095474 
	C300.942688,163.743393 298.184326,176.659546 286.401001,183.805542 
	C283.667755,185.463089 280.258484,186.732452 277.111450,186.847794 
	C266.800385,187.225754 256.466827,186.989746 245.795502,186.989746 
	C245.795502,167.751526 245.795502,148.692810 245.795502,128.995651 
	C250.988846,128.995651 256.244843,128.995651 261.999817,128.995636 
z"/>
<path fill="#020200" opacity="1.000000" stroke="none" 
	d="
M471.787109,284.891052 
	C480.527191,275.608887 490.435669,273.842407 499.663879,279.676086 
	C509.559784,285.931854 513.723999,299.351257 509.360992,310.925629 
	C505.083710,322.272675 494.056946,328.540009 483.295105,325.740845 
	C472.264313,322.871796 463.996918,309.390381 466.525085,297.475067 
	C467.429718,293.211578 469.837311,289.266998 471.787109,284.891052 
z"/>
<path fill="#020100" opacity="1.000000" stroke="none" 
	d="
M343.023224,309.995880 
	C343.023224,300.209534 343.023224,290.922577 343.023224,281.081207 
	C347.203918,281.081207 351.165985,280.727112 355.039154,281.162964 
	C361.061859,281.840759 365.662048,287.692993 365.930756,294.730774 
	C366.133545,300.043121 366.095978,305.372498 365.951965,310.688507 
	C365.705109,319.803253 360.258942,324.967926 351.087433,324.994385 
	C348.612640,325.001495 346.137787,324.995453 343.023224,324.995453 
	C343.023224,320.001434 343.023224,315.248352 343.023224,309.995880 
z"/>
</svg>